HIERARCHY
ROOT Hips
{
 OFFSET 0.000000 0.000000 0.000000
 CHANNELS 6 Xposition Yposition Zposition Yrotation Xrotation Zrotation
 JOINT Chest
 {
  OFFSET 0.000000 9.585900 0.002600
  CHANNELS 3 Yrotation Xrotation Zrotation
  JOINT Chest2
  {
   OFFSET 0.000000 9.601200 -0.005300
   CHANNELS 3 Yrotation Xrotation Zrotation
   JOINT Chest3
   {
    OFFSET 0.000000 9.561800 0.000000
    CHANNELS 3 Yrotation Xrotation Zrotation
    JOINT Chest4
    {
     OFFSET 0.000000 9.552100 0.000000
     CHANNELS 3 Yrotation Xrotation Zrotation
     JOINT Neck
     {
      OFFSET 0.000000 14.453000 0.000000
      CHANNELS 3 Yrotation Xrotation Zrotation
      JOINT Head
      {
       OFFSET 0.000000 8.936500 -0.011300
       CHANNELS 3 Yrotation Xrotation Zrotation
       End Site
       {
        OFFSET 0.000000 17.073600 -0.006000
       }
      }
     }
     JOINT RightCollar
     {
      OFFSET -2.921100 9.558500 0.000000
      CHANNELS 3 Yrotation Xrotation Zrotation
      JOINT RightShoulder
      {
       OFFSET -13.519700 0.000000 0.000000
       CHANNELS 3 Yrotation Xrotation Zrotation
       JOINT RightElbow
       {
        OFFSET 0.000000 -29.696600 0.000000
        CHANNELS 3 Yrotation Xrotation Zrotation
        JOINT RightWrist
        {
         OFFSET 0.000000 -24.004700 0.000000
         CHANNELS 3 Yrotation Xrotation Zrotation
         End Site
         {
          OFFSET 0.000000 -17.728500 0.000000
         }
        }
       }
      }
     }
     JOINT LeftCollar
     {
      OFFSET 2.921100 9.558500 0.000000
      CHANNELS 3 Yrotation Xrotation Zrotation
      JOINT LeftShoulder
      {
       OFFSET 13.519700 0.000000 0.000000
       CHANNELS 3 Yrotation Xrotation Zrotation
       JOINT LeftElbow
       {
        OFFSET 0.000000 -29.696600 0.000000
        CHANNELS 3 Yrotation Xrotation Zrotation
        JOINT LeftWrist
        {
         OFFSET 0.000000 -24.004700 0.000000
         CHANNELS 3 Yrotation Xrotation Zrotation
         End Site
         {
          OFFSET 0.000000 -17.728500 0.000000
         }
        }
       }
      }
     }
    }
   }
  }
 }
 JOINT RightHip
 {
  OFFSET -7.771700 -0.012900 -0.001300
  CHANNELS 3 Yrotation Xrotation Zrotation
  JOINT RightKnee
  {
   OFFSET 0.000000 -40.869800 0.001200
   CHANNELS 3 Yrotation Xrotation Zrotation
   JOINT RightAnkle
   {
    OFFSET 0.000000 -39.717900 0.002100
    CHANNELS 3 Yrotation Xrotation Zrotation
    JOINT RightToe
    {
     OFFSET 0.000000 -4.965400 11.033500
     CHANNELS 3 Yrotation Xrotation Zrotation
     End Site
     {
      OFFSET 0.000000 -1.423100 5.872300
     }
    }
   }
  }
 }
 JOINT LeftHip
 {
  OFFSET 7.771700 -0.012900 -0.001300
  CHANNELS 3 Yrotation Xrotation Zrotation
  JOINT LeftKnee
  {
   OFFSET 0.000000 -40.869800 0.001200
   CHANNELS 3 Yrotation Xrotation Zrotation
   JOINT LeftAnkle
   {
    OFFSET 0.000000 -39.717900 0.002100
    CHANNELS 3 Yrotation Xrotation Zrotation
    JOINT LeftToe
    {
     OFFSET 0.000000 -4.965400 11.033500
     CHANNELS 3 Yrotation Xrotation Zrotation
     End Site
     {
      OFFSET 0.000000 -1.423100 5.872300
     }
    }
   }
  }
 }
}
MOTION
Frames: 6
Frame Time: 0.008333
-91.860988 57.772898 91.484484 177.261558 -28.214133 -0.572026 3.059760 17.411922 2.013149 0.291417 1.907265 0.187885 0.492399 3.174120 0.313126 2.694976 15.200050 1.722223 1.670509 10.495117 -8.095936 6.787551 -15.601807 -16.350272 2.588746 -2.679141 -1.904205 -7.239905 -20.450192 -5.183153 -128.172744 -38.568304 114.406015 -14.453814 -23.262629 -53.123791 -8.775340 -3.613621 -2.428743 32.383112 -20.045483 -6.324061 98.099147 -25.519583 -110.282518 14.244160 -19.035648 24.086571 5.482537 -47.577342 -5.215204 -11.408676 69.614956 -13.508464 9.827613 20.996941 6.226965 -0.292750 -15.789673 1.793884 -11.422302 -44.964553 1.084934 33.042636 66.352694 32.685801 -13.537424 3.993765 -5.666542 0.060349 0.023952 0.055609
-91.862642 57.771785 91.484598 177.291585 -28.127090 -0.596002 3.088411 17.298333 1.997352 0.294272 1.890228 0.184310 0.467629 3.180479 0.331025 2.749330 15.107457 1.674990 1.732777 10.426279 -8.104733 6.922302 -15.717492 -16.404779 2.519931 -2.610493 -1.922137 -7.440233 -20.279107 -5.092381 -128.724290 -38.541844 115.374347 -14.437217 -23.315752 -53.179140 -8.809087 -3.595857 -2.395436 32.420008 -20.235041 -6.237868 98.150629 -25.476398 -111.073584 14.197129 -18.971297 23.783023 5.438532 -47.658930 -5.204466 -11.406825 69.614096 -13.514031 9.826070 20.985817 6.221646 -0.293255 -15.784059 1.796965 -11.444966 -45.046631 1.112251 33.013592 66.354412 32.668208 -13.529275 3.971200 -5.671553 0.053003 0.037476 0.060158
-91.863242 57.772413 91.479687 177.315119 -28.072475 -0.610828 3.120402 17.217015 1.975169 0.296680 1.873993 0.180711 0.516684 3.104060 0.289689 2.743470 15.097548 1.696135 1.801116 10.352853 -8.105560 7.066284 -15.841662 -16.447555 2.449255 -2.546141 -1.939225 -7.642327 -20.114956 -5.006842 -129.263885 -38.500044 116.392539 -14.433162 -23.359821 -53.210489 -8.844555 -3.578070 -2.371168 32.469765 -20.451796 -6.151633 98.187444 -25.419115 -111.900056 14.148883 -18.902841 23.497286 5.414770 -47.709487 -5.204890 -11.409379 69.619622 -13.517610 9.823547 20.973844 6.213539 -0.291532 -15.781511 1.801893 -11.424698 -45.098175 1.119950 32.999618 66.358236 32.659505 -13.543297 3.940934 -5.670786 0.040317 0.061793 0.081939
-91.860559 57.773525 91.472242 177.335454 -28.034825 -0.633253 3.156072 17.151486 1.960311 0.311577 1.848268 0.166332 0.521328 3.073243 0.282288 2.759937 15.058550 1.689611 1.874597 10.276705 -8.098724 7.217638 -15.970998 -16.478391 2.380361 -2.488200 -1.953866 -7.844449 -19.959716 -4.929001 -129.797257 -38.442344 117.463960 -14.437377 -23.394089 -53.205411 -8.881178 -3.564070 -2.354787 32.533432 -20.689541 -6.069882 98.193040 -25.348111 -112.759351 14.088794 -18.833101 23.222217 5.385806 -47.738333 -5.180559 -11.415436 69.624522 -13.530253 9.805267 20.949573 6.207506 -0.288976 -15.771275 1.808050 -11.378214 -45.133739 1.145916 32.982629 66.382683 32.633654 -13.586365 3.904894 -5.632185 0.043039 0.067708 0.082901
-91.857683 57.775326 91.461716 177.342860 -28.017426 -0.642348 3.197817 17.106651 1.936419 0.291682 1.853342 0.186155 0.544862 3.031776 0.252194 2.782622 15.007606 1.667703 1.953077 10.198659 -8.085387 7.376308 -16.103864 -16.499513 2.318718 -2.437842 -1.967103 -8.043654 -19.816836 -4.863010 -130.332774 -38.376205 118.589164 -14.449363 -23.420907 -53.166142 -8.920670 -3.555496 -2.344472 32.606615 -20.944130 -5.998646 98.185413 -25.284630 -113.654991 14.001685 -18.763657 22.955978 5.389174 -47.749840 -5.169082 -11.422142 69.633941 -13.540981 9.781657 20.934741 6.206591 -0.284093 -15.770708 1.813512 -11.363035 -45.149463 1.169958 32.973121 66.402184 32.607556 -13.598477 3.883757 -5.612801 0.048581 0.052096 0.072949
-91.855693 57.775108 91.453196 177.364367 -27.985717 -0.648836 3.215574 17.051014 1.898445 0.278892 1.855656 0.206467 0.544310 3.022349 0.249584 2.808921 14.936310 1.614743 2.036897 10.118509 -8.067463 7.543713 -16.240243 -16.514718 2.267820 -2.396488 -1.981530 -8.236626 -19.688402 -4.813255 -130.879881 -38.313952 119.769069 -14.466371 -23.431070 -53.104722 -8.960843 -3.554310 -2.340813 32.677495 -21.208675 -5.936209 98.226759 -25.258087 -114.597749 13.891559 -18.678276 22.697146 5.408100 -47.777391 -5.178751 -11.445412 69.650725 -13.568841 9.757903 20.911009 6.215524 -0.280391 -15.767145 1.818678 -11.371528 -45.181997 1.184298 32.996592 66.417277 32.604946 -13.590358 3.859979 -5.585349 0.034989 0.049183 0.062483
